<svg xmlns="http://www.w3.org/2000/svg" xmlns:xlink="http://www.w3.org/1999/xlink" xmlns:lucid="lucid" width="1043.11" height="1360"><g transform="translate(-480 20)" lucid:page-tab-id="0_0"><path d="M761.55 0h480v60h-480z" fill="none"/><use xlink:href="#a" transform="matrix(1,0,0,1,761.5540751588928,0) translate(64.24166666666684 35.822222222222216)"/><use xlink:href="#b" transform="matrix(1,0,0,1,761.5540751588928,0) translate(153.1114197530865 35.822222222222216)"/><use xlink:href="#c" transform="matrix(1,0,0,1,761.5540751588928,0) translate(251.1188271604938 35.822222222222216)"/><path d="M1055.55 100c19.9 0 36 22.4 36 50s-16.1 50-36 50h-108c-19.88 0-36-22.4-36-50s16.12-50 36-50z" stroke="#000" stroke-opacity="0" fill="#0c7cba"/><use xlink:href="#d" transform="matrix(1,0,0,1,916.5540751588928,105) translate(14.01944444444446 49.48888888888889)"/><use xlink:href="#e" transform="matrix(1,0,0,1,916.5540751588928,105) translate(61.339814814814815 49.48888888888889)"/><path d="M1100 308c0-4.42 3.58-8 8-8h184c4.42 0 8 3.58 8 8v84c0 4.42-3.58 8-8 8h-184c-4.42 0-8-3.58-8-8z" stroke="#333" fill="#ff8f80"/><use xlink:href="#f" transform="matrix(1,0,0,1,1112,312) translate(39.49506172839508 42.48888888888889)"/><path d="M700 308c0-4.42 3.58-8 8-8h184c4.42 0 8 3.58 8 8v84c0 4.42-3.58 8-8 8H708c-4.42 0-8-3.58-8-8z" stroke="#333" fill="#0c7cba"/><use xlink:href="#g" transform="matrix(1,0,0,1,712,312) translate(57.57530864197531 42.48888888888889)"/><path d="M1091.55 150" stroke="#333" fill="none"/><path fill="#333"/><path fill="#333"/><path d="M1038.22 202.5v35.25c0 6.63 5.37 12 12 12H1188c6.63 0 12 5.37 12 12V297" stroke="#333" stroke-width="5" fill="none"/><path d="M1040.72 202.56h-5V200h5M1202.5 299.5h-5v-2.56h5" fill="#333"/><path d="M968.9 202.5v35.25c0 6.63-5.4 12-12 12H812c-6.63 0-12 5.37-12 12V297" stroke="#333" stroke-width="5" fill="none"/><path d="M971.4 202.56h-5V200h5M802.5 299.5h-5v-2.56h5" fill="#333"/><path d="M1038.22 200" stroke="#333" stroke-width="5" fill="none"/><path fill="#333"/><path d="M1038.22 200" stroke="#333" stroke-width="5" fill="none"/><path d="M1061.55 708c0 6.63-26.86 12-60 12-33.13 0-60-5.37-60-12v-96c0-6.63 26.87-12 60-12 33.14 0 60 5.37 60 12z" stroke="#333" stroke-width="5" fill="#5abaa7"/><path d="M1061.55 612c0 6.63-26.86 12-60 12-33.13 0-60-5.37-60-12" stroke="#333" stroke-width="5" fill="none"/><use xlink:href="#h" transform="matrix(1,0,0,1,946.5540751588928,629) translate(14.599999999999994 35.8)"/><use xlink:href="#i" transform="matrix(1,0,0,1,946.5540751588928,629) translate(74.45 35.8)"/><use xlink:href="#j" transform="matrix(1,0,0,1,946.5540751588928,629) translate(28.574999999999996 57.4)"/><path d="M1396.6 593.03c3.6-2.57 9.42-2.57 13 0l87 62.3c3.6 2.58 3.6 6.76 0 9.33l-87 62.3c-3.58 2.58-9.4 2.58-13 0l-87-62.3c-3.58-2.57-3.58-6.75 0-9.32z" stroke="#333" stroke-width="5" fill="#ff8f80"/><use xlink:href="#k" transform="matrix(1,0,0,1,1308.1081503177857,593.3749999999918) translate(61.574999999999996 38.19999999999999)"/><use xlink:href="#l" transform="matrix(1,0,0,1,1308.1081503177857,593.3749999999918) translate(55.074999999999996 59.79999999999999)"/><use xlink:href="#m" transform="matrix(1,0,0,1,1308.1081503177857,593.3749999999918) translate(89.525 81.4)"/><use xlink:href="#n" transform="matrix(1,0,0,1,1308.1081503177857,593.3749999999918) translate(57.574999999999996 103)"/><path d="M1200 403v79.6c0 6.63 5.37 12 12 12h179.1c6.64 0 12 5.37 12 12v79.6" stroke="#333" stroke-width="5" fill="none"/><path d="M1202.5 403.06h-5v-2.56h5M1405.6 588.8v-.02l-4-.12-1 .23v-2.76h5" fill="#333"/><path d="M593.5 593.03c3.6-2.57 9.4-2.57 13 0l87 62.3c3.6 2.58 3.6 6.76 0 9.33l-87 62.3c-3.6 2.58-9.4 2.58-13 0l-87-62.3c-3.6-2.57-3.6-6.75 0-9.32z" stroke="#333" stroke-width="5" fill="#0c7cba"/><use xlink:href="#o" transform="matrix(1,0,0,1,505,593.3749999999955) translate(61.574999999999996 49)"/><use xlink:href="#p" transform="matrix(1,0,0,1,505,593.3749999999955) translate(82.525 70.60000000000001)"/><use xlink:href="#q" transform="matrix(1,0,0,1,505,593.3749999999955) translate(70.6 92.20000000000002)"/><path d="M800 403v79.6c0 6.63-5.37 12-12 12H612c-6.63 0-12 5.37-12 12v79.6" stroke="#333" stroke-width="5" fill="none"/><path d="M802.5 403.06h-5v-2.56h5M602.5 588.8l-.02-.02-3.98-.12-1 .23v-2.76h5" fill="#333"/><path d="M1302.02 660h-235.47" stroke="#333" stroke-width="5" fill="none"/><path d="M1304.7 657.8l-.27 3.3.56 1.4h-3.04v-5h2.9M1066.62 662.5h-2.57v-5h2.57" fill="#333"/><use xlink:href="#r" transform="matrix(1,0,0,1,1126.8621117422551,634.3999999999966) translate(0.005000000000002558 14.4)"/><use xlink:href="#s" transform="matrix(1,0,0,1,1126.8621117422551,634.3999999999966) translate(5.005000000000003 14.4)"/><use xlink:href="#t" transform="matrix(1,0,0,1,1126.8621117422551,634.3999999999966) translate(34.955000000000005 14.4)"/><path d="M701.1 660h235.45" stroke="#333" stroke-width="5" fill="none"/><path d="M701.15 662.5h-2.9l.17-.3.25-3.3-.55-1.4h3.03M939.05 662.5h-2.56v-5h2.55" fill="#333"/><use xlink:href="#u" transform="matrix(1,0,0,1,745.9210385755302,634.4000000000002) translate(0.0049999999999954525 14.4)"/><use xlink:href="#v" transform="matrix(1,0,0,1,745.9210385755302,634.4000000000002) translate(5.0049999999999955 14.4)"/><use xlink:href="#w" transform="matrix(1,0,0,1,745.9210385755302,634.4000000000002) translate(34.955 14.4)"/><use xlink:href="#x" transform="matrix(1,0,0,1,745.9210385755302,634.4000000000002) translate(96.805 14.4)"/><path d="M900 968c0-4.42 3.58-8 8-8h184c4.42 0 8 3.58 8 8v84c0 4.42-3.58 8-8 8H908c-4.42 0-8-3.58-8-8z" stroke="#333" fill="#5abaa7"/><use xlink:href="#y" transform="matrix(1,0,0,1,912,972) translate(56.88950617283952 42.48888888888889)"/><path d="M600 733.8v99.6c0 6.63 5.37 12 12 12h376c6.63 0 12 5.37 12 12V957" stroke="#333" stroke-width="5" fill="none"/><path d="M602.5 733.86h-5v-2.65l.02.02 3.98.12 1-.23M1002.5 959.5h-5v-2.56h5" fill="#333"/><g><use xlink:href="#z" transform="matrix(1,0,0,1,626.8569445412573,817.1310277824589) translate(0.0049999999999954525 16.177777777777774)"/><use xlink:href="#A" transform="matrix(1,0,0,1,626.8569445412573,817.1310277824589) translate(135.7185802469135 16.177777777777774)"/><use xlink:href="#B" transform="matrix(1,0,0,1,626.8569445412573,817.1310277824589) translate(181.72413580246902 16.177777777777774)"/></g><path d="M1403.1 733.8v99.6c0 6.63-5.36 12-12 12H1012c-6.63 0-12 5.37-12 12V957" stroke="#333" stroke-width="5" fill="none"/><path d="M1405.6 733.86h-5v-2.65l.03.02 3.98.12 1-.23M1002.5 959.5h-5v-2.56h5" fill="#333"/><g><use xlink:href="#z" transform="matrix(1,0,0,1,1139.566975308642,817.131027782457) translate(0.0049999999999954525 16.177777777777774)"/><use xlink:href="#A" transform="matrix(1,0,0,1,1139.566975308642,817.131027782457) translate(135.7185802469135 16.177777777777774)"/><use xlink:href="#B" transform="matrix(1,0,0,1,1139.566975308642,817.131027782457) translate(181.72413580246902 16.177777777777774)"/></g><path d="M900 1208c0-4.42 3.58-8 8-8h184c4.42 0 8 3.58 8 8v104c0 4.42-3.58 8-8 8H908c-4.42 0-8-3.58-8-8z" stroke="#3aa6dd" stroke-width="5" fill="#ffdf71"/><path d="M920 1200v120m160-120v120" stroke="#3aa6dd" stroke-width="5" fill="none"/><g><use xlink:href="#C" transform="matrix(1,0,0,1,930,1205) translate(18.34783950617286 59.48888888888889)"/></g><path d="M1000 1063v132" stroke="#333" stroke-width="5" fill="none"/><path d="M1002.5 1063.06h-5v-2.56h5M1002.5 1197.5h-5v-2.56h5" fill="#333"/><defs><path fill="#ff741d" d="M169-182c-1-43-94-46-97-3 18 66 151 10 154 114 3 95-165 93-204 36-6-8-10-19-12-30l50-8c3 46 112 56 116 5-17-69-150-10-154-114-4-87 153-88 188-35 5 8 8 18 10 28" id="D"/><path fill="#ff741d" d="M190-63c-7 42-38 67-86 67-59 0-84-38-90-98-12-110 154-137 174-36l-49 2c-2-19-15-32-35-32-30 0-35 28-38 64-6 74 65 87 74 30" id="E"/><path fill="#ff741d" d="M110-194c64 0 96 36 96 99 0 64-35 99-97 99-61 0-95-36-95-99 0-62 34-99 96-99zm-1 164c35 0 45-28 45-65 0-40-10-65-43-65-34 0-45 26-45 65 0 36 10 65 43 65" id="F"/><path fill="#ff741d" d="M135-150c-39-12-60 13-60 57V0H25l-1-190h47c2 13-1 29 3 40 6-28 27-53 61-41v41" id="G"/><path fill="#ff741d" d="M185-48c-13 30-37 53-82 52C43 2 14-33 14-96s30-98 90-98c62 0 83 45 84 108H66c0 31 8 55 39 56 18 0 30-7 34-22zm-45-69c5-46-57-63-70-21-2 6-4 13-4 21h74" id="H"/><g id="a"><use transform="matrix(0.0808641975308641,0,0,0.0808641975308641,0,0)" xlink:href="#D"/><use transform="matrix(0.0808641975308641,0,0,0.0808641975308641,19.407407407407383,0)" xlink:href="#E"/><use transform="matrix(0.0808641975308641,0,0,0.0808641975308641,35.580246913580204,0)" xlink:href="#F"/><use transform="matrix(0.0808641975308641,0,0,0.0808641975308641,53.28950617283943,0)" xlink:href="#G"/><use transform="matrix(0.0808641975308641,0,0,0.0808641975308641,64.61049382716041,0)" xlink:href="#H"/></g><path fill="#ff741d" d="M136-208V0H84v-208H4v-40h212v40h-80" id="I"/><path fill="#ff741d" d="M133-34C117-15 103 5 69 4 32 3 11-16 11-54c-1-60 55-63 116-61 1-26-3-47-28-47-18 1-26 9-28 27l-52-2c7-38 36-58 82-57s74 22 75 68l1 82c-1 14 12 18 25 15v27c-30 8-71 5-69-32zm-48 3c29 0 43-24 42-57-32 0-66-3-65 30 0 17 8 27 23 27" id="J"/><path fill="#ff741d" d="M220-157c-53 9-28 100-34 157h-49v-107c1-27-5-49-29-50C55-147 81-57 75 0H25l-1-190h47c2 12-1 28 3 38 10-53 101-56 108 0 13-22 24-43 59-42 82 1 51 116 57 194h-49v-107c-1-25-5-48-29-50" id="K"/><path fill="#ff741d" d="M137-138c1-29-70-34-71-4 15 46 118 7 119 86 1 83-164 76-172 9l43-7c4 19 20 25 44 25 33 8 57-30 24-41C81-84 22-81 20-136c-2-80 154-74 161-7" id="L"/><g id="b"><use transform="matrix(0.0808641975308641,0,0,0.0808641975308641,0,0)" xlink:href="#I"/><use transform="matrix(0.0808641975308641,0,0,0.0808641975308641,15.525925925925907,0)" xlink:href="#H"/><use transform="matrix(0.0808641975308641,0,0,0.0808641975308641,31.698765432098728,0)" xlink:href="#J"/><use transform="matrix(0.0808641975308641,0,0,0.0808641975308641,47.871604938271545,0)" xlink:href="#K"/><use transform="matrix(0.0808641975308641,0,0,0.0808641975308641,73.74814814814806,0)" xlink:href="#L"/></g><path fill="#ff741d" d="M76-208v77h127v40H76V0H24v-248h183v40H76" id="M"/><path fill="#ff741d" d="M25 0v-261h50V0H25" id="N"/><path fill="#ff741d" d="M85 4C-2 5 27-109 22-190h50c7 57-23 150 33 157 60-5 35-97 40-157h50l1 190h-47c-2-12 1-28-3-38-12 25-28 42-61 42" id="O"/><path fill="#ff741d" d="M144 0l-44-69L55 0H2l70-98-66-92h53l41 62 40-62h54l-67 91 71 99h-54" id="P"/><path fill="#ff741d" d="M195-6C206 82 75 100 31 46c-4-6-6-13-8-21l49-6c3 16 16 24 34 25 40 0 42-37 40-79-11 22-30 35-61 35-53 0-70-43-70-97 0-56 18-96 73-97 30 0 46 14 59 34l2-30h47zm-90-29c32 0 41-27 41-63 0-35-9-62-40-62-32 0-39 29-40 63 0 36 9 62 39 62" id="Q"/><g id="c"><use transform="matrix(0.0808641975308641,0,0,0.0808641975308641,0,0)" xlink:href="#M"/><use transform="matrix(0.0808641975308641,0,0,0.0808641975308641,17.709259259259237,0)" xlink:href="#N"/><use transform="matrix(0.0808641975308641,0,0,0.0808641975308641,25.795679012345648,0)" xlink:href="#O"/><use transform="matrix(0.0808641975308641,0,0,0.0808641975308641,43.504938271604885,0)" xlink:href="#P"/><use transform="matrix(0.0808641975308641,0,0,0.0808641975308641,59.677777777777706,0)" xlink:href="#F"/><use transform="matrix(0.0808641975308641,0,0,0.0808641975308641,77.38703703703695,0)" xlink:href="#Q"/><use transform="matrix(0.0808641975308641,0,0,0.0808641975308641,95.09629629629619,0)" xlink:href="#G"/><use transform="matrix(0.0808641975308641,0,0,0.0808641975308641,106.41728395061716,0)" xlink:href="#J"/><use transform="matrix(0.0808641975308641,0,0,0.0808641975308641,122.59012345678998,0)" xlink:href="#K"/><use transform="matrix(0.0808641975308641,0,0,0.0808641975308641,148.4666666666665,0)" xlink:href="#J"/></g><path fill="#fff" d="M178-136c88 48 22 151-73 140C49-3 12-15 4-64l51-9c1 50 111 53 115 3-16-63-132-20-133-112 0-93 190-91 199-10l-50 12c-4-41-93-50-97-4 7 38 59 32 89 48" id="R"/><path fill="#fff" d="M50-224l7-37h49l-7 37H50zM6 0l37-190h49L55 0H6" id="S"/><path fill="#fff" d="M72-63c-8 23 5 39 32 30L98-1C54 14 12-6 23-64l18-93H15l7-33h28l24-45h31l-8 45h35l-6 33H90" id="T"/><path fill="#fff" d="M114-194c63-2 87 48 72 110H63c-3 28 1 55 31 54 21-1 32-13 37-29l44 13C160-14 137 4 91 4 41 4 11-22 11-73c0-71 33-119 103-121zm30 77c14-47-50-61-67-22-3 6-6 13-8 22h75" id="U"/><g id="d"><use transform="matrix(0.06234567901234567,0,0,0.06234567901234567,0,0)" xlink:href="#R"/><use transform="matrix(0.06234567901234567,0,0,0.06234567901234567,14.96296296296296,0)" xlink:href="#S"/><use transform="matrix(0.06234567901234567,0,0,0.06234567901234567,21.197530864197525,0)" xlink:href="#T"/><use transform="matrix(0.06234567901234567,0,0,0.06234567901234567,28.61666666666666,0)" xlink:href="#U"/></g><path fill="#fff" d="M241-173c-1 82-78 91-166 86L58 0H6l48-248c87 0 188-12 187 75zm-53 2c0-43-48-36-90-36l-15 80c50 0 105 7 105-44" id="V"/><path fill="#fff" d="M84-151c13-25 34-51 72-40l-8 41C67-170 71-64 56 0H6l36-190h47" id="W"/><path fill="#fff" d="M151-194c95 0 34 128 28 194h-49l25-134c0-29-45-25-59-9C67-111 69-48 56 0H6l36-190h47l-4 32c15-20 33-36 66-36" id="X"/><path fill="#fff" d="M67-101c-8 29-7 73 27 71 23-2 32-16 39-37l48 9C170-19 141 4 91 4 36 4 7-28 12-86c6-75 61-124 140-103 26 7 40 29 43 59l-50 4c-1-20-9-34-29-34-35 0-41 29-49 59" id="Y"/><path fill="#fff" d="M156-122c2-23-7-37-28-37-47 0-58 44-58 89 0 24 12 40 36 40 43 0 47-49 50-92zM-8 75l50-265h48c0 10-3 24-3 30 22-50 127-45 121 29-6 73-21 135-92 135-29 0-46-14-55-35L41 75H-8" id="Z"/><path fill="#fff" d="M166-52c-4 17 5 29 24 23l-3 27c-30 11-74 1-67-34C105-15 91 4 56 4 23 4 3-15 2-49c0-64 63-67 128-67 10-22 3-53-29-45-13 3-22 10-25 24l-46-5c5-64 156-77 153 0-1 33-11 60-17 90zM97-88c-44-9-64 57-19 57 31 0 42-28 47-57H97" id="aa"/><path fill="#fff" d="M6 0l51-261h49L55 0H6" id="ab"/><g id="e"><use transform="matrix(0.06234567901234567,0,0,0.06234567901234567,0,0)" xlink:href="#V"/><use transform="matrix(0.06234567901234567,0,0,0.06234567901234567,14.96296296296296,0)" xlink:href="#W"/><use transform="matrix(0.06234567901234567,0,0,0.06234567901234567,23.691358024691354,0)" xlink:href="#S"/><use transform="matrix(0.06234567901234567,0,0,0.06234567901234567,29.92592592592592,0)" xlink:href="#X"/><use transform="matrix(0.06234567901234567,0,0,0.06234567901234567,43.57962962962962,0)" xlink:href="#Y"/><use transform="matrix(0.06234567901234567,0,0,0.06234567901234567,56.048765432098755,0)" xlink:href="#S"/><use transform="matrix(0.06234567901234567,0,0,0.06234567901234567,62.28333333333332,0)" xlink:href="#Z"/><use transform="matrix(0.06234567901234567,0,0,0.06234567901234567,75.93703703703702,0)" xlink:href="#aa"/><use transform="matrix(0.06234567901234567,0,0,0.06234567901234567,88.40617283950616,0)" xlink:href="#ab"/></g><path fill="#fafafa" d="M67-125c0 53 21 87 73 88 37 1 54-22 65-47l45 17C233-25 199 4 140 4 58 4 20-42 15-125 8-235 124-281 211-232c18 10 29 29 36 50l-46 12c-8-25-30-41-62-41-52 0-71 34-72 86" id="ac"/><path fill="#fafafa" d="M133-34C117-15 103 5 69 4 32 3 11-16 11-54c-1-60 55-63 116-61 1-26-3-47-28-47-18 1-26 9-28 27l-52-2c7-38 36-58 82-57s74 22 75 68l1 82c-1 14 12 18 25 15v27c-30 8-71 5-69-32zm-48 3c29 0 43-24 42-57-32 0-66-3-65 30 0 17 8 27 23 27" id="ad"/><path fill="#fafafa" d="M88-194c31-1 46 15 58 34l-1-101h50l1 261h-48c-2-10 0-23-3-31C134-8 116 4 84 4 32 4 16-41 15-95c0-56 19-97 73-99zm17 164c33 0 40-30 41-66 1-37-9-64-41-64s-38 30-39 65c0 43 13 65 39 65" id="ae"/><path fill="#fafafa" d="M137-138c1-29-70-34-71-4 15 46 118 7 119 86 1 83-164 76-172 9l43-7c4 19 20 25 44 25 33 8 57-30 24-41C81-84 22-81 20-136c-2-80 154-74 161-7" id="af"/><path fill="#fafafa" d="M115-3C79 11 28 4 28-45v-112H4v-33h27l15-45h31v45h36v33H77v99c-1 23 16 31 38 25v30" id="ag"/><path fill="#fafafa" d="M135-150c-39-12-60 13-60 57V0H25l-1-190h47c2 13-1 29 3 40 6-28 27-53 61-41v41" id="ah"/><path fill="#fafafa" d="M110-194c64 0 96 36 96 99 0 64-35 99-97 99-61 0-95-36-95-99 0-62 34-99 96-99zm-1 164c35 0 45-28 45-65 0-40-10-65-43-65-34 0-45 26-45 65 0 36 10 65 43 65" id="ai"/><g id="f"><use transform="matrix(0.06234567901234567,0,0,0.06234567901234567,0,0)" xlink:href="#ac"/><use transform="matrix(0.06234567901234567,0,0,0.06234567901234567,16.147530864197527,0)" xlink:href="#ad"/><use transform="matrix(0.06234567901234567,0,0,0.06234567901234567,28.61666666666666,0)" xlink:href="#ae"/><use transform="matrix(0.06234567901234567,0,0,0.06234567901234567,42.27037037037036,0)" xlink:href="#ad"/><use transform="matrix(0.06234567901234567,0,0,0.06234567901234567,54.73950617283949,0)" xlink:href="#af"/><use transform="matrix(0.06234567901234567,0,0,0.06234567901234567,67.20864197530862,0)" xlink:href="#ag"/><use transform="matrix(0.06234567901234567,0,0,0.06234567901234567,74.62777777777775,0)" xlink:href="#ah"/><use transform="matrix(0.06234567901234567,0,0,0.06234567901234567,83.35617283950614,0)" xlink:href="#ai"/></g><path fill="#fafafa" d="M24 0v-248h52v208h133V0H24" id="aj"/><path fill="#fafafa" d="M195-6C206 82 75 100 31 46c-4-6-6-13-8-21l49-6c3 16 16 24 34 25 40 0 42-37 40-79-11 22-30 35-61 35-53 0-70-43-70-97 0-56 18-96 73-97 30 0 46 14 59 34l2-30h47zm-90-29c32 0 41-27 41-63 0-35-9-62-40-62-32 0-39 29-40 63 0 36 9 62 39 62" id="ak"/><path fill="#fafafa" d="M25-224v-37h50v37H25zM25 0v-190h50V0H25" id="al"/><path fill="#fafafa" d="M135-194c87-1 58 113 63 194h-50c-7-57 23-157-34-157-59 0-34 97-39 157H25l-1-190h47c2 12-1 28 3 38 12-26 28-41 61-42" id="am"/><g id="g"><use transform="matrix(0.06234567901234567,0,0,0.06234567901234567,0,0)" xlink:href="#aj"/><use transform="matrix(0.06234567901234567,0,0,0.06234567901234567,13.653703703703702,0)" xlink:href="#ai"/><use transform="matrix(0.06234567901234567,0,0,0.06234567901234567,27.307407407407403,0)" xlink:href="#ak"/><use transform="matrix(0.06234567901234567,0,0,0.06234567901234567,40.96111111111111,0)" xlink:href="#al"/><use transform="matrix(0.06234567901234567,0,0,0.06234567901234567,47.19567901234568,0)" xlink:href="#am"/></g><path d="M182-130c37 4 62 22 62 59C244 23 116-4 24 0v-248c84 5 203-23 205 63 0 31-19 50-47 55zM76-148c40-3 101 13 101-30 0-44-60-28-101-31v61zm0 110c48-3 116 14 116-37 0-48-69-32-116-35v72" id="an"/><path d="M133-34C117-15 103 5 69 4 32 3 11-16 11-54c-1-60 55-63 116-61 1-26-3-47-28-47-18 1-26 9-28 27l-52-2c7-38 36-58 82-57s74 22 75 68l1 82c-1 14 12 18 25 15v27c-30 8-71 5-69-32zm-48 3c29 0 43-24 42-57-32 0-66-3-65 30 0 17 8 27 23 27" id="ao"/><path d="M135-194c87-1 58 113 63 194h-50c-7-57 23-157-34-157-59 0-34 97-39 157H25l-1-190h47c2 12-1 28 3 38 12-26 28-41 61-42" id="ap"/><path d="M190-63c-7 42-38 67-86 67-59 0-84-38-90-98-12-110 154-137 174-36l-49 2c-2-19-15-32-35-32-30 0-35 28-38 64-6 74 65 87 74 30" id="aq"/><path d="M110-194c64 0 96 36 96 99 0 64-35 99-97 99-61 0-95-36-95-99 0-62 34-99 96-99zm-1 164c35 0 45-28 45-65 0-40-10-65-43-65-34 0-45 26-45 65 0 36 10 65 43 65" id="ar"/><g id="h"><use transform="matrix(0.05,0,0,0.05,0,0)" xlink:href="#an"/><use transform="matrix(0.05,0,0,0.05,12.950000000000001,0)" xlink:href="#ao"/><use transform="matrix(0.05,0,0,0.05,22.950000000000003,0)" xlink:href="#ap"/><use transform="matrix(0.05,0,0,0.05,33.900000000000006,0)" xlink:href="#aq"/><use transform="matrix(0.05,0,0,0.05,43.900000000000006,0)" xlink:href="#ar"/></g><path d="M88-194c31-1 46 15 58 34l-1-101h50l1 261h-48c-2-10 0-23-3-31C134-8 116 4 84 4 32 4 16-41 15-95c0-56 19-97 73-99zm17 164c33 0 40-30 41-66 1-37-9-64-41-64s-38 30-39 65c0 43 13 65 39 65" id="as"/><path d="M185-48c-13 30-37 53-82 52C43 2 14-33 14-96s30-98 90-98c62 0 83 45 84 108H66c0 31 8 55 39 56 18 0 30-7 34-22zm-45-69c5-46-57-63-70-21-2 6-4 13-4 21h74" id="at"/><g id="i"><use transform="matrix(0.05,0,0,0.05,0,0)" xlink:href="#as"/><use transform="matrix(0.05,0,0,0.05,10.950000000000001,0)" xlink:href="#at"/></g><path d="M137-138c1-29-70-34-71-4 15 46 118 7 119 86 1 83-164 76-172 9l43-7c4 19 20 25 44 25 33 8 57-30 24-41C81-84 22-81 20-136c-2-80 154-74 161-7" id="au"/><g id="j"><use transform="matrix(0.05,0,0,0.05,0,0)" xlink:href="#as"/><use transform="matrix(0.05,0,0,0.05,10.950000000000001,0)" xlink:href="#ao"/><use transform="matrix(0.05,0,0,0.05,20.950000000000003,0)" xlink:href="#as"/><use transform="matrix(0.05,0,0,0.05,31.900000000000006,0)" xlink:href="#ar"/><use transform="matrix(0.05,0,0,0.05,42.85000000000001,0)" xlink:href="#au"/></g><path fill="#fff" d="M238-95c0 69-44 99-111 99C63 4 22-25 22-93v-155h51v151c-1 38 19 59 55 60 90 1 49-130 58-211h52v153" id="av"/><path fill="#fff" d="M137-138c1-29-70-34-71-4 15 46 118 7 119 86 1 83-164 76-172 9l43-7c4 19 20 25 44 25 33 8 57-30 24-41C81-84 22-81 20-136c-2-80 154-74 161-7" id="aw"/><path fill="#fff" d="M85 4C-2 5 27-109 22-190h50c7 57-23 150 33 157 60-5 35-97 40-157h50l1 190h-47c-2-12 1-28-3-38-12 25-28 42-61 42" id="ax"/><path fill="#fff" d="M132-34C116-15 102 5 68 4 31 3 10-16 10-54c-1-60 55-63 116-61 1-26-3-47-28-47-18 1-26 9-28 27l-52-2c7-38 36-58 82-57s74 22 75 68l1 82c-1 14 12 18 25 15v27c-30 8-71 5-69-32zm-48 3c29 0 43-24 42-57-32 0-66-3-65 30 0 17 8 27 23 27zM66-208v-5l45-51h45v8l-60 48H66" id="ay"/><path fill="#fff" d="M135-150c-39-12-60 13-60 57V0H25l-1-190h47c2 13-1 29 3 40 6-28 27-53 61-41v41" id="az"/><path fill="#fff" d="M25-224v-37h50v37H25zM25 0v-190h50V0H25" id="aA"/><path fill="#fff" d="M110-194c64 0 96 36 96 99 0 64-35 99-97 99-61 0-95-36-95-99 0-62 34-99 96-99zm-1 164c35 0 45-28 45-65 0-40-10-65-43-65-34 0-45 26-45 65 0 36 10 65 43 65" id="aB"/><g id="k"><use transform="matrix(0.05,0,0,0.05,0,0)" xlink:href="#av"/><use transform="matrix(0.05,0,0,0.05,12.950000000000001,0)" xlink:href="#aw"/><use transform="matrix(0.05,0,0,0.05,22.950000000000003,0)" xlink:href="#ax"/><use transform="matrix(0.05,0,0,0.05,33.900000000000006,0)" xlink:href="#ay"/><use transform="matrix(0.05,0,0,0.05,43.900000000000006,0)" xlink:href="#az"/><use transform="matrix(0.05,0,0,0.05,50.900000000000006,0)" xlink:href="#aA"/><use transform="matrix(0.05,0,0,0.05,55.900000000000006,0)" xlink:href="#aB"/></g><path fill="#fff" d="M135-194c53 0 70 44 70 98 0 56-19 98-73 100-31 1-45-17-59-34 3 33 2 69 2 105H25l-1-265h48c2 10 0 23 3 31 11-24 29-35 60-35zM114-30c33 0 39-31 40-66 0-38-9-64-40-64-56 0-55 130 0 130" id="aC"/><path fill="#fff" d="M185-48c-13 30-37 53-82 52C43 2 14-33 14-96s30-98 90-98c62 0 83 45 84 108H66c0 31 8 55 39 56 18 0 30-7 34-22zm-45-69c5-46-57-63-70-21-2 6-4 13-4 21h74" id="aD"/><path fill="#fff" d="M135-194c87-1 58 113 63 194h-50c-7-57 23-157-34-157-59 0-34 97-39 157H25l-1-190h47c2 12-1 28 3 38 12-26 28-41 61-42" id="aE"/><path fill="#fff" d="M190-63c-7 42-38 67-86 67-59 0-84-38-90-98-12-110 154-137 174-36l-49 2c-2-19-15-32-35-32-30 0-35 28-38 64-6 74 65 87 74 30" id="aF"/><path fill="#fff" d="M114-157C55-157 80-60 75 0H25v-261h50l-1 109c12-26 28-41 61-42 86-1 58 113 63 194h-50c-7-57 23-157-34-157" id="aG"/><g id="l"><use transform="matrix(0.05,0,0,0.05,0,0)" xlink:href="#aC"/><use transform="matrix(0.05,0,0,0.05,10.950000000000001,0)" xlink:href="#az"/><use transform="matrix(0.05,0,0,0.05,17.950000000000003,0)" xlink:href="#aD"/><use transform="matrix(0.05,0,0,0.05,27.950000000000003,0)" xlink:href="#aD"/><use transform="matrix(0.05,0,0,0.05,37.95,0)" xlink:href="#aE"/><use transform="matrix(0.05,0,0,0.05,48.900000000000006,0)" xlink:href="#aF"/><use transform="matrix(0.05,0,0,0.05,58.900000000000006,0)" xlink:href="#aG"/><use transform="matrix(0.05,0,0,0.05,69.85000000000001,0)" xlink:href="#aD"/></g><use transform="matrix(0.05,0,0,0.05,0,0)" xlink:href="#aB" id="m"/><path fill="#fff" d="M133-34C117-15 103 5 69 4 32 3 11-16 11-54c-1-60 55-63 116-61 1-26-3-47-28-47-18 1-26 9-28 27l-52-2c7-38 36-58 82-57s74 22 75 68l1 82c-1 14 12 18 25 15v27c-30 8-71 5-69-32zm-48 3c29 0 43-24 42-57-32 0-66-3-65 30 0 17 8 27 23 27" id="aH"/><path fill="#fff" d="M88-194c31-1 46 15 58 34l-1-101h50l1 261h-48c-2-10 0-23-3-31C134-8 116 4 84 4 32 4 16-41 15-95c0-56 19-97 73-99zm17 164c33 0 40-30 41-66 1-37-9-64-41-64s-38 30-39 65c0 43 13 65 39 65" id="aI"/><path fill="#fff" d="M115-3C79 11 28 4 28-45v-112H4v-33h27l15-45h31v45h36v33H77v99c-1 23 16 31 38 25v30" id="aJ"/><g id="n"><use transform="matrix(0.05,0,0,0.05,0,0)" xlink:href="#aF"/><use transform="matrix(0.05,0,0,0.05,10,0)" xlink:href="#aH"/><use transform="matrix(0.05,0,0,0.05,20,0)" xlink:href="#aI"/><use transform="matrix(0.05,0,0,0.05,30.950000000000003,0)" xlink:href="#aH"/><use transform="matrix(0.05,0,0,0.05,40.95,0)" xlink:href="#aw"/><use transform="matrix(0.05,0,0,0.05,50.95,0)" xlink:href="#aJ"/><use transform="matrix(0.05,0,0,0.05,56.900000000000006,0)" xlink:href="#az"/><use transform="matrix(0.05,0,0,0.05,63.900000000000006,0)" xlink:href="#aB"/></g><path fill="#fafafa" d="M238-95c0 69-44 99-111 99C63 4 22-25 22-93v-155h51v151c-1 38 19 59 55 60 90 1 49-130 58-211h52v153" id="aK"/><path fill="#fafafa" d="M85 4C-2 5 27-109 22-190h50c7 57-23 150 33 157 60-5 35-97 40-157h50l1 190h-47c-2-12 1-28-3-38-12 25-28 42-61 42" id="aL"/><path fill="#fafafa" d="M132-34C116-15 102 5 68 4 31 3 10-16 10-54c-1-60 55-63 116-61 1-26-3-47-28-47-18 1-26 9-28 27l-52-2c7-38 36-58 82-57s74 22 75 68l1 82c-1 14 12 18 25 15v27c-30 8-71 5-69-32zm-48 3c29 0 43-24 42-57-32 0-66-3-65 30 0 17 8 27 23 27zM66-208v-5l45-51h45v8l-60 48H66" id="aM"/><g id="o"><use transform="matrix(0.05,0,0,0.05,0,0)" xlink:href="#aK"/><use transform="matrix(0.05,0,0,0.05,12.950000000000001,0)" xlink:href="#af"/><use transform="matrix(0.05,0,0,0.05,22.950000000000003,0)" xlink:href="#aL"/><use transform="matrix(0.05,0,0,0.05,33.900000000000006,0)" xlink:href="#aM"/><use transform="matrix(0.05,0,0,0.05,43.900000000000006,0)" xlink:href="#ah"/><use transform="matrix(0.05,0,0,0.05,50.900000000000006,0)" xlink:href="#al"/><use transform="matrix(0.05,0,0,0.05,55.900000000000006,0)" xlink:href="#ai"/></g><path fill="#fafafa" d="M121-226c-27-7-43 5-38 36h38v33H83V0H34v-157H6v-33h28c-9-59 32-81 87-68v32" id="aN"/><path fill="#fafafa" d="M12 0v-35l95-120H19v-35h142v35L67-36h103V0H12" id="aO"/><g id="p"><use transform="matrix(0.05,0,0,0.05,0,0)" xlink:href="#aN"/><use transform="matrix(0.05,0,0,0.05,5.95,0)" xlink:href="#ad"/><use transform="matrix(0.05,0,0,0.05,15.949999999999998,0)" xlink:href="#aO"/></g><g id="q"><use transform="matrix(0.05,0,0,0.05,0,0)" xlink:href="#aj"/><use transform="matrix(0.05,0,0,0.05,10.950000000000001,0)" xlink:href="#ai"/><use transform="matrix(0.05,0,0,0.05,21.900000000000002,0)" xlink:href="#ak"/><use transform="matrix(0.05,0,0,0.05,32.85,0)" xlink:href="#al"/><use transform="matrix(0.05,0,0,0.05,37.85,0)" xlink:href="#am"/></g><path fill="#c92d39" d="M160-131c35 5 61 23 61 61C221 17 115-2 30 0v-248c76 3 177-17 177 60 0 33-19 50-47 57zm-97-11c50-1 110 9 110-42 0-47-63-36-110-37v79zm0 115c55-2 124 14 124-45 0-56-70-42-124-44v89" id="aP"/><path fill="#c92d39" d="M30-248c118-7 216 8 213 122C240-48 200 0 122 0H30v-248zM63-27c89 8 146-16 146-99s-60-101-146-95v194" id="aQ"/><g id="s"><use transform="matrix(0.05,0,0,0.05,0,0)" xlink:href="#aP"/><use transform="matrix(0.05,0,0,0.05,12,0)" xlink:href="#aQ"/></g><path fill="#c92d39" d="M141-36C126-15 110 5 73 4 37 3 15-17 15-53c-1-64 63-63 125-63 3-35-9-54-41-54-24 1-41 7-42 31l-33-3c5-37 33-52 76-52 45 0 72 20 72 64v82c-1 20 7 32 28 27v20c-31 9-61-2-59-35zM48-53c0 20 12 33 32 33 41-3 63-29 60-74-43 2-92-5-92 41" id="aR"/><path fill="#c92d39" d="M114-163C36-179 61-72 57 0H25l-1-190h30c1 12-1 29 2 39 6-27 23-49 58-41v29" id="aS"/><path fill="#c92d39" d="M210-169c-67 3-38 105-44 169h-31v-121c0-29-5-50-35-48C34-165 62-65 56 0H25l-1-190h30c1 10-1 24 2 32 10-44 99-50 107 0 11-21 27-35 58-36 85-2 47 119 55 194h-31v-121c0-29-5-49-35-48" id="aT"/><path fill="#c92d39" d="M9 0v-24l116-142H16v-24h144v24L44-24h123V0H9" id="aU"/><path fill="#c92d39" d="M100-194c63 0 86 42 84 106H49c0 40 14 67 53 68 26 1 43-12 49-29l28 8c-11 28-37 45-77 45C44 4 14-33 15-96c1-61 26-98 85-98zm52 81c6-60-76-77-97-28-3 7-6 17-6 28h103" id="aV"/><path fill="#c92d39" d="M117-194c89-4 53 116 60 194h-32v-121c0-31-8-49-39-48C34-167 62-67 57 0H25l-1-190h30c1 10-1 24 2 32 11-22 29-35 61-36" id="aW"/><g id="t"><use transform="matrix(0.05,0,0,0.05,0,0)" xlink:href="#aR"/><use transform="matrix(0.05,0,0,0.05,10,0)" xlink:href="#aS"/><use transform="matrix(0.05,0,0,0.05,15.949999999999998,0)" xlink:href="#aT"/><use transform="matrix(0.05,0,0,0.05,30.899999999999995,0)" xlink:href="#aR"/><use transform="matrix(0.05,0,0,0.05,40.9,0)" xlink:href="#aU"/><use transform="matrix(0.05,0,0,0.05,49.9,0)" xlink:href="#aV"/><use transform="matrix(0.05,0,0,0.05,59.900000000000006,0)" xlink:href="#aW"/><use transform="matrix(0.05,0,0,0.05,69.9,0)" xlink:href="#aR"/></g><path fill="#0c7cba" d="M160-131c35 5 61 23 61 61C221 17 115-2 30 0v-248c76 3 177-17 177 60 0 33-19 50-47 57zm-97-11c50-1 110 9 110-42 0-47-63-36-110-37v79zm0 115c55-2 124 14 124-45 0-56-70-42-124-44v89" id="aX"/><path fill="#0c7cba" d="M30-248c118-7 216 8 213 122C240-48 200 0 122 0H30v-248zM63-27c89 8 146-16 146-99s-60-101-146-95v194" id="aY"/><g id="v"><use transform="matrix(0.05,0,0,0.05,0,0)" xlink:href="#aX"/><use transform="matrix(0.05,0,0,0.05,12,0)" xlink:href="#aY"/></g><path fill="#0c7cba" d="M108 0H70L1-190h34L89-25l56-165h34" id="aZ"/><path fill="#0c7cba" d="M100-194c63 0 86 42 84 106H49c0 40 14 67 53 68 26 1 43-12 49-29l28 8c-11 28-37 45-77 45C44 4 14-33 15-96c1-61 26-98 85-98zm52 81c6-60-76-77-97-28-3 7-6 17-6 28h103" id="ba"/><path fill="#0c7cba" d="M114-163C36-179 61-72 57 0H25l-1-190h30c1 12-1 29 2 39 6-27 23-49 58-41v29" id="bb"/><path fill="#0c7cba" d="M24-231v-30h32v30H24zM24 0v-190h32V0H24" id="bc"/><path fill="#0c7cba" d="M101-234c-31-9-42 10-38 44h38v23H63V0H32v-167H5v-23h27c-7-52 17-82 69-68v24" id="bd"/><path fill="#0c7cba" d="M96-169c-40 0-48 33-48 73s9 75 48 75c24 0 41-14 43-38l32 2c-6 37-31 61-74 61-59 0-76-41-82-99-10-93 101-131 147-64 4 7 5 14 7 22l-32 3c-4-21-16-35-41-35" id="be"/><path fill="#0c7cba" d="M141-36C126-15 110 5 73 4 37 3 15-17 15-53c-1-64 63-63 125-63 3-35-9-54-41-54-24 1-41 7-42 31l-33-3c5-37 33-52 76-52 45 0 72 20 72 64v82c-1 20 7 32 28 27v20c-31 9-61-2-59-35zM48-53c0 20 12 33 32 33 41-3 63-29 60-74-43 2-92-5-92 41" id="bf"/><g id="w"><use transform="matrix(0.05,0,0,0.05,0,0)" xlink:href="#aZ"/><use transform="matrix(0.05,0,0,0.05,9,0)" xlink:href="#ba"/><use transform="matrix(0.05,0,0,0.05,19,0)" xlink:href="#bb"/><use transform="matrix(0.05,0,0,0.05,24.95,0)" xlink:href="#bc"/><use transform="matrix(0.05,0,0,0.05,28.899999999999995,0)" xlink:href="#bd"/><use transform="matrix(0.05,0,0,0.05,33.9,0)" xlink:href="#bc"/><use transform="matrix(0.05,0,0,0.05,37.85,0)" xlink:href="#be"/><use transform="matrix(0.05,0,0,0.05,46.85,0)" xlink:href="#bf"/></g><path fill="#0c7cba" d="M85-194c31 0 48 13 60 33l-1-100h32l1 261h-30c-2-10 0-23-3-31C134-8 116 4 85 4 32 4 16-35 15-94c0-66 23-100 70-100zm9 24c-40 0-46 34-46 75 0 40 6 74 45 74 42 0 51-32 51-76 0-42-9-74-50-73" id="bg"/><path fill="#0c7cba" d="M100-194c62-1 85 37 85 99 1 63-27 99-86 99S16-35 15-95c0-66 28-99 85-99zM99-20c44 1 53-31 53-75 0-43-8-75-51-75s-53 32-53 75 10 74 51 75" id="bh"/><path fill="#0c7cba" d="M135-143c-3-34-86-38-87 0 15 53 115 12 119 90S17 21 10-45l28-5c4 36 97 45 98 0-10-56-113-15-118-90-4-57 82-63 122-42 12 7 21 19 24 35" id="bi"/><g id="x"><use transform="matrix(0.05,0,0,0.05,0,0)" xlink:href="#bg"/><use transform="matrix(0.05,0,0,0.05,10,0)" xlink:href="#bf"/><use transform="matrix(0.05,0,0,0.05,20,0)" xlink:href="#bg"/><use transform="matrix(0.05,0,0,0.05,30,0)" xlink:href="#bh"/><use transform="matrix(0.05,0,0,0.05,40,0)" xlink:href="#bi"/></g><path d="M186 0v-106H76V0H24v-248h52v99h110v-99h50V0h-50" id="bj"/><path d="M220-157c-53 9-28 100-34 157h-49v-107c1-27-5-49-29-50C55-147 81-57 75 0H25l-1-190h47c2 12-1 28 3 38 10-53 101-56 108 0 13-22 24-43 59-42 82 1 51 116 57 194h-49v-107c-1-25-5-48-29-50" id="bk"/><g id="y"><use transform="matrix(0.06234567901234567,0,0,0.06234567901234567,0,0)" xlink:href="#bj"/><use transform="matrix(0.06234567901234567,0,0,0.06234567901234567,16.147530864197527,0)" xlink:href="#ar"/><use transform="matrix(0.06234567901234567,0,0,0.06234567901234567,29.80123456790123,0)" xlink:href="#bk"/><use transform="matrix(0.06234567901234567,0,0,0.06234567901234567,49.75185185185184,0)" xlink:href="#at"/></g><path fill="#00c130" d="M233-177c-1 41-23 64-60 70L243 0h-38l-65-103H63V0H30v-248c88 3 205-21 203 71zM63-129c60-2 137 13 137-47 0-61-80-42-137-45v92" id="bl"/><path fill="#00c130" d="M100-194c63 0 86 42 84 106H49c0 40 14 67 53 68 26 1 43-12 49-29l28 8c-11 28-37 45-77 45C44 4 14-33 15-96c1-61 26-98 85-98zm52 81c6-60-76-77-97-28-3 7-6 17-6 28h103" id="bm"/><path fill="#00c130" d="M85-194c31 0 48 13 60 33l-1-100h32l1 261h-30c-2-10 0-23-3-31C134-8 116 4 85 4 32 4 16-35 15-94c0-66 23-100 70-100zm9 24c-40 0-46 34-46 75 0 40 6 74 45 74 42 0 51-32 51-76 0-42-9-74-50-73" id="bn"/><path fill="#00c130" d="M24-231v-30h32v30H24zM24 0v-190h32V0H24" id="bo"/><path fill="#00c130" d="M114-163C36-179 61-72 57 0H25l-1-190h30c1 12-1 29 2 39 6-27 23-49 58-41v29" id="bp"/><path fill="#00c130" d="M96-169c-40 0-48 33-48 73s9 75 48 75c24 0 41-14 43-38l32 2c-6 37-31 61-74 61-59 0-76-41-82-99-10-93 101-131 147-64 4 7 5 14 7 22l-32 3c-4-21-16-35-41-35" id="bq"/><path fill="#00c130" d="M100-194c62-1 85 37 85 99 1 63-27 99-86 99S16-35 15-95c0-66 28-99 85-99zM99-20c44 1 53-31 53-75 0-43-8-75-51-75s-53 32-53 75 10 74 51 75" id="br"/><path fill="#00c130" d="M117-194c89-4 53 116 60 194h-32v-121c0-31-8-49-39-48C34-167 62-67 57 0H25l-1-190h30c1 10-1 24 2 32 11-22 29-35 61-36" id="bs"/><path fill="#00c130" d="M141-36C126-15 110 5 73 4 37 3 15-17 15-53c-1-64 63-63 125-63 3-35-9-54-41-54-24 1-41 7-42 31l-33-3c5-37 33-52 76-52 45 0 72 20 72 64v82c-1 20 7 32 28 27v20c-31 9-61-2-59-35zM48-53c0 20 12 33 32 33 41-3 63-29 60-74-43 2-92-5-92 41" id="bt"/><g id="z"><use transform="matrix(0.056172839506172814,0,0,0.056172839506172814,0,0)" xlink:href="#bl"/><use transform="matrix(0.056172839506172814,0,0,0.056172839506172814,14.548765432098758,0)" xlink:href="#bm"/><use transform="matrix(0.056172839506172814,0,0,0.056172839506172814,25.78333333333332,0)" xlink:href="#bn"/><use transform="matrix(0.056172839506172814,0,0,0.056172839506172814,37.01790123456789,0)" xlink:href="#bo"/><use transform="matrix(0.056172839506172814,0,0,0.056172839506172814,41.45555555555554,0)" xlink:href="#bp"/><use transform="matrix(0.056172839506172814,0,0,0.056172839506172814,48.14012345679011,0)" xlink:href="#bm"/><use transform="matrix(0.056172839506172814,0,0,0.056172839506172814,59.37469135802466,0)" xlink:href="#bq"/><use transform="matrix(0.056172839506172814,0,0,0.056172839506172814,69.48580246913578,0)" xlink:href="#bo"/><use transform="matrix(0.056172839506172814,0,0,0.056172839506172814,73.92345679012342,0)" xlink:href="#br"/><use transform="matrix(0.056172839506172814,0,0,0.056172839506172814,85.15802469135798,0)" xlink:href="#bs"/><use transform="matrix(0.056172839506172814,0,0,0.056172839506172814,96.39259259259254,0)" xlink:href="#bt"/><use transform="matrix(0.056172839506172814,0,0,0.056172839506172814,107.62716049382709,0)" xlink:href="#bn"/><use transform="matrix(0.056172839506172814,0,0,0.056172839506172814,118.86172839506165,0)" xlink:href="#br"/></g><path fill="#00c130" d="M115-194c55 1 70 41 70 98S169 2 115 4C84 4 66-9 55-30l1 105H24l-1-265h31l2 30c10-21 28-34 59-34zm-8 174c40 0 45-34 45-75s-6-73-45-74c-42 0-51 32-51 76 0 43 10 73 51 73" id="bu"/><g id="A"><use transform="matrix(0.056172839506172814,0,0,0.056172839506172814,0,0)" xlink:href="#bu"/><use transform="matrix(0.056172839506172814,0,0,0.056172839506172814,11.234567901234563,0)" xlink:href="#bt"/><use transform="matrix(0.056172839506172814,0,0,0.056172839506172814,22.469135802469125,0)" xlink:href="#bp"/><use transform="matrix(0.056172839506172814,0,0,0.056172839506172814,29.15370370370369,0)" xlink:href="#bt"/></g><path fill="#00c130" d="M197 0v-115H63V0H30v-248h33v105h134v-105h34V0h-34" id="bv"/><path fill="#00c130" d="M210-169c-67 3-38 105-44 169h-31v-121c0-29-5-50-35-48C34-165 62-65 56 0H25l-1-190h30c1 10-1 24 2 32 10-44 99-50 107 0 11-21 27-35 58-36 85-2 47 119 55 194h-31v-121c0-29-5-49-35-48" id="bw"/><g id="B"><use transform="matrix(0.056172839506172814,0,0,0.056172839506172814,0,0)" xlink:href="#bv"/><use transform="matrix(0.056172839506172814,0,0,0.056172839506172814,14.548765432098758,0)" xlink:href="#br"/><use transform="matrix(0.056172839506172814,0,0,0.056172839506172814,25.78333333333332,0)" xlink:href="#bw"/><use transform="matrix(0.056172839506172814,0,0,0.056172839506172814,42.57901234567899,0)" xlink:href="#bm"/></g><path d="M67-125c0 53 21 87 73 88 37 1 54-22 65-47l45 17C233-25 199 4 140 4 58 4 20-42 15-125 8-235 124-281 211-232c18 10 29 29 36 50l-46 12c-8-25-30-41-62-41-52 0-71 34-72 86" id="bx"/><path d="M115-3C79 11 28 4 28-45v-112H4v-33h27l15-45h31v45h36v33H77v99c-1 23 16 31 38 25v30" id="by"/><path d="M85 4C-2 5 27-109 22-190h50c7 57-23 150 33 157 60-5 35-97 40-157h50l1 190h-47c-2-12 1-28-3-38-12 25-28 42-61 42zm-4-212v-5l45-51h45v8l-60 48H81" id="bz"/><g id="C"><use transform="matrix(0.06234567901234565,0,0,0.06234567901234565,0,0)" xlink:href="#bx"/><use transform="matrix(0.06234567901234565,0,0,0.06234567901234565,16.147530864197524,0)" xlink:href="#ar"/><use transform="matrix(0.06234567901234565,0,0,0.06234567901234565,29.801234567901222,0)" xlink:href="#ap"/><use transform="matrix(0.06234567901234565,0,0,0.06234567901234565,43.45493827160492,0)" xlink:href="#by"/><use transform="matrix(0.06234567901234565,0,0,0.06234567901234565,50.87407407407405,0)" xlink:href="#at"/><use transform="matrix(0.06234567901234565,0,0,0.06234567901234565,63.343209876543185,0)" xlink:href="#bz"/><use transform="matrix(0.06234567901234565,0,0,0.06234567901234565,76.99691358024688,0)" xlink:href="#as"/><use transform="matrix(0.06234567901234565,0,0,0.06234567901234565,90.65061728395058,0)" xlink:href="#ar"/></g></defs></g></svg>